<svg width="25" height="24" viewBox="0 0 25 24" fill="none" xmlns="http://www.w3.org/2000/svg">
<path d="M12.227 21.264C12.227 19.9475 11.1599 18.8804 9.84366 18.8804C8.52718 18.8804 7.46004 19.9475 7.46004 21.2637C7.46004 22.5802 8.52718 23.6473 9.84366 23.6473C11.1592 23.6459 12.2256 22.5797 12.227 21.264ZM8.30545 21.264C8.30545 20.4143 8.994 19.7258 9.84366 19.7258C10.6931 19.7258 11.3816 20.4143 11.3816 21.2637C11.3816 22.1134 10.6931 22.8019 9.84366 22.8019C8.99447 22.801 8.3064 22.1129 8.30545 21.264Z" fill="#333333"/>
<path d="M18.6695 23.6473C19.9859 23.6476 21.0531 22.5804 21.0531 21.264C21.0533 19.9475 19.9862 18.8804 18.6697 18.8804C17.3532 18.8804 16.2861 19.9475 16.2861 21.264C16.2877 22.5795 17.3537 23.6457 18.6695 23.6473ZM18.6695 19.7258C19.5189 19.7258 20.2077 20.4143 20.2077 21.2637C20.2079 22.1131 19.5191 22.8019 18.6697 22.8019C17.8203 22.8019 17.1315 22.1134 17.1315 21.264C17.1324 20.415 17.8205 19.7269 18.6695 19.7258Z" fill="#333333"/>
<path d="M0.422703 0.845425H3.00114C3.84961 0.842123 4.57307 1.4599 4.70233 2.2987L6.74343 15.1918C6.93615 16.442 8.01461 17.3632 9.27965 17.3582H21.8961C22.1294 17.3582 22.3188 17.1688 22.3188 16.9355C22.3188 16.702 22.1294 16.5128 21.8961 16.5128H9.27965C8.43118 16.5161 7.70772 15.8981 7.57846 15.0595L7.23147 12.8675H20.1529C21.2469 12.867 22.2207 12.174 22.5792 11.1406L24.9765 4.22162C25.0216 4.09236 25.001 3.94941 24.9218 3.83784C24.8423 3.7265 24.714 3.66022 24.5772 3.66022H5.77372L5.53736 2.16637C5.34464 0.91619 4.26618 -0.00493366 3.00114 1.98836e-05H0.422703C0.189178 1.98836e-05 0 0.189434 0 0.422723C0 0.656247 0.189178 0.845425 0.422703 0.845425ZM23.9832 4.50586L21.7805 10.8636C21.5399 11.5569 20.8868 12.0218 20.1529 12.022H7.09749L5.90746 4.50563L23.9832 4.50586Z" fill="#333333"/>
</svg>
